<svg width="20" height="24" viewBox="0 0 20 24" fill="none" xmlns="http://www.w3.org/2000/svg">
<g clip-path="url(#clip0_32_147)">
<path d="M2.49194 4.04034C1.51152 2.62879 2.37378 0.907465 3.86197 0.0484009L9.67743 9.98992L15.4929 0.0484009C16.9811 0.907465 17.8433 2.62879 16.8629 4.04034L10.9708 12.1999L13.4554 16.4489C14.3358 16.0004 15.3512 15.8944 16.3052 16.1513C17.2592 16.4082 18.0841 17.0098 18.6202 17.8397C19.1564 18.6695 19.3657 19.6687 19.2078 20.644C19.0499 21.6193 18.5359 22.5014 17.7652 23.1197C16.9946 23.738 16.0221 24.0485 15.0357 23.9912C14.0494 23.9339 13.1193 23.5129 12.4254 22.8095C11.7316 22.1062 11.3232 21.1705 11.2792 20.1835C11.2353 19.1965 11.5589 18.2282 12.1876 17.466L9.67743 13.9882L7.1673 17.4644C7.79593 18.2266 8.11958 19.1949 8.07564 20.1819C8.03169 21.1689 7.62329 22.1046 6.92941 22.8079C6.23553 23.5113 5.30548 23.9323 4.31914 23.9896C3.3328 24.0469 2.36025 23.7364 1.58961 23.1181C0.818959 22.4998 0.304967 21.6177 0.147041 20.6424C-0.0108844 19.6671 0.198478 18.6679 0.734636 17.8381C1.27079 17.0082 2.09565 16.4066 3.04967 16.1497C4.00369 15.8928 5.01908 15.9989 5.89946 16.4473L8.38404 12.1999L2.49194 4.04034ZM6.48388 20.0081C6.48388 19.3728 6.23153 18.7636 5.78235 18.3144C5.33317 17.8653 4.72395 17.6129 4.08872 17.6129C3.45348 17.6129 2.84426 17.8653 2.39508 18.3144C1.9459 18.7636 1.69355 19.3728 1.69355 20.0081C1.69355 20.6433 1.9459 21.2525 2.39508 21.7017C2.84426 22.1509 3.45348 22.4032 4.08872 22.4032C4.72395 22.4032 5.33317 22.1509 5.78235 21.7017C6.23153 21.2525 6.48388 20.6433 6.48388 20.0081ZM17.6613 20.0081C17.6613 19.3728 17.4089 18.7636 16.9598 18.3144C16.5106 17.8653 15.9014 17.6129 15.2661 17.6129C14.6309 17.6129 14.0217 17.8653 13.5725 18.3144C13.1233 18.7636 12.871 19.3728 12.871 20.0081C12.871 20.6433 13.1233 21.2525 13.5725 21.7017C14.0217 22.1509 14.6309 22.4032 15.2661 22.4032C15.9014 22.4032 16.5106 22.1509 16.9598 21.7017C17.4089 21.2525 17.6613 20.6433 17.6613 20.0081Z" fill="white"/>
</g>
<defs>
<clipPath id="clip0_32_147">
<rect width="19.3548" height="24" fill="white"/>
</clipPath>
</defs>
</svg>
